<mxfile host="app.diagrams.net" modified="2023-08-04T08:11:38.824Z" agent="Mozilla/5.0 (Macintosh; Intel Mac OS X 10_15_7) AppleWebKit/537.36 (KHTML, like Gecko) Chrome/114.0.0.0 Safari/537.36" version="21.6.5" etag="KtNvgR6qvpIa31gY5wKV" type="github">
  <diagram name="第 1 页" id="HGaVncMJ9oqPKZgV6J3P">
    <mxGraphModel>
      <root>
        <mxCell id="0" />
        <mxCell id="1" parent="0" />
      </root>
    </mxGraphModel>
  </diagram>
</mxfile>
